<svg width="116" height="32" viewBox="0 0 116 32" fill="none" xmlns="http://www.w3.org/2000/svg">
  <path d="M19.7002 7.83244L26.9765 3.7793L26.9825 11.6542L21.3457 14.7937C17.5009 16.9356 15.2853 19.7448 14.3899 22.2394C13.4947 24.7331 13.6264 26.1631 13.5977 26.7865C13.5977 22.8163 13.6106 21.6291 13.6106 18.2862C13.6106 17.4625 13.7053 16.5563 13.8165 16.1226C13.8165 16.1226 14.7734 10.5769 19.7002 7.83244Z" fill="#9573F5"/>
  <path d="M13.5947 18.4578L13.5985 26.7867L6.71443 22.9627L6.71143 16.5106C6.70943 12.1097 5.33207 8.80756 3.58769 6.8121C1.84381 4.81738 0.530658 4.21452 0 3.88623C3.43579 5.73004 4.3447 6.22747 7.27457 7.80146C8.00035 8.19121 8.94524 8.93323 9.27003 9.24128C9.27003 9.24128 13.5923 12.8182 13.5947 18.4578Z" fill="#6837F1"/>
  <path d="M19.6891 7.83221C22.6262 6.21849 24.7596 5.00877 26.9766 3.77907C26.418 4.06113 25.2263 4.88186 22.5969 5.32907C19.9666 5.77653 16.2693 5.68009 12.4592 3.37683L6.87357 0L0 3.88675L7.51516 7.9204C9.38695 9.04392 14.0602 10.9247 19.6891 7.83221Z" fill="#D2C3FB"/>
  <path d="M42.3112 10.4161H39.7534V14.4395C39.7534 15.0143 39.8666 15.427 40.0929 15.6775C40.3344 15.9133 40.7494 16.0312 41.3379 16.0312C41.6246 16.0312 41.949 16.0091 42.3112 15.9649V18.4629C41.5718 18.6251 40.9304 18.7061 40.3872 18.7061C39.2102 18.7061 38.2972 18.3671 37.6483 17.6892C37.0145 16.9965 36.6976 15.9649 36.6976 14.5943V10.4161H35V8.11704H36.6976V5.48635H39.7534V8.11704H42.3112V10.4161Z" fill="white"/>
  <path d="M48.9324 7.76333C49.8831 7.76333 50.7583 7.95492 51.5581 8.3381C52.3729 8.72128 53.0294 9.34027 53.5273 10.1951C54.0253 11.0498 54.2743 12.1331 54.2743 13.4447C54.2743 13.7542 54.2667 13.99 54.2517 14.1521H46.6009C46.7217 14.8153 46.9782 15.3459 47.3705 15.7438C47.7629 16.1417 48.2986 16.3407 48.9776 16.3407C49.9887 16.3407 50.6677 15.9133 51.0148 15.0585H54.0932C53.8065 16.2818 53.1953 17.2102 52.2598 17.844C51.3393 18.4777 50.2377 18.7945 48.955 18.7945C47.9741 18.7945 47.0687 18.6029 46.2388 18.2198C45.4088 17.8218 44.7373 17.2102 44.2242 16.3849C43.7112 15.5449 43.4546 14.4985 43.4546 13.2458C43.4546 12.0078 43.7112 10.9835 44.2242 10.173C44.7373 9.34764 45.4088 8.74339 46.2388 8.36021C47.0687 7.96229 47.9666 7.76333 48.9324 7.76333ZM48.9097 10.2172C48.2458 10.2172 47.7252 10.4161 47.3479 10.814C46.9706 11.1972 46.7217 11.7204 46.6009 12.3836H51.1959C50.9545 10.9393 50.1924 10.2172 48.9097 10.2172Z" fill="white"/>
  <path d="M62.2012 7.80754C63.3481 7.80754 64.2233 8.16125 64.8269 8.86866C65.4305 9.57607 65.7323 10.5488 65.7323 11.7867V18.4408H62.6766V12.5163C62.6766 11.8531 62.5181 11.3446 62.2012 10.9909C61.8994 10.6372 61.4467 10.4603 60.8431 10.4603C60.2395 10.4603 59.7717 10.6446 59.4397 11.013C59.1228 11.3814 58.9644 11.8825 58.9644 12.5163V18.4408H55.9086V8.11704H58.9644V9.53186C59.236 9.08973 59.6435 8.69181 60.1867 8.3381C60.745 7.9844 61.4166 7.80754 62.2012 7.80754Z" fill="white"/>
  <path d="M75.0117 5.02211H78.0901V18.4408H75.0344V17.3134C74.6722 17.7703 74.212 18.124 73.6536 18.3745C73.1104 18.6251 72.5068 18.7503 71.8428 18.7503C70.9676 18.7503 70.1904 18.544 69.5114 18.1313C68.8323 17.7039 68.3042 17.0776 67.9269 16.2523C67.5497 15.427 67.361 14.4395 67.361 13.29C67.361 11.5509 67.7685 10.2024 68.5833 9.24447C69.4133 8.28652 70.4998 7.80754 71.8428 7.80754C72.5068 7.80754 73.1104 7.93281 73.6536 8.18336C74.1969 8.4339 74.6496 8.7876 75.0117 9.24447V5.02211ZM72.8161 16.2302C73.6159 16.2302 74.212 15.9575 74.6043 15.4122C75.0118 14.8669 75.2155 14.1595 75.2155 13.29C75.2155 12.4205 75.0118 11.713 74.6043 11.1678C74.212 10.6077 73.6159 10.3277 72.8161 10.3277C72.0163 10.3277 71.4278 10.593 71.0506 11.1235C70.6733 11.6541 70.4847 12.3762 70.4847 13.29C70.4847 14.2037 70.6733 14.9259 71.0506 15.4564C71.4278 15.9723 72.0163 16.2302 72.8161 16.2302Z" fill="white"/>
  <path d="M85.178 7.76333C86.1287 7.76333 87.0039 7.95492 87.8037 8.3381C88.6186 8.72128 89.275 9.34027 89.773 10.1951C90.2709 11.0498 90.5199 12.1331 90.5199 13.4447C90.5199 13.7542 90.5124 13.99 90.4973 14.1521H82.8466C82.9673 14.8153 83.2238 15.3459 83.6162 15.7438C84.0085 16.1417 84.5442 16.3407 85.2233 16.3407C86.2343 16.3407 86.9134 15.9133 87.2604 15.0585H90.3388C90.0521 16.2818 89.441 17.2102 88.5054 17.844C87.5849 18.4777 86.4833 18.7945 85.2006 18.7945C84.2198 18.7945 83.3144 18.6029 82.4844 18.2198C81.6544 17.8218 80.9829 17.2102 80.4699 16.3849C79.9568 15.5449 79.7003 14.4985 79.7003 13.2458C79.7003 12.0078 79.9568 10.9835 80.4699 10.173C80.9829 9.34764 81.6544 8.74339 82.4844 8.36021C83.3144 7.96229 84.2122 7.76333 85.178 7.76333ZM85.1554 10.2172C84.4914 10.2172 83.9708 10.4161 83.5935 10.814C83.2163 11.1972 82.9673 11.7204 82.8466 12.3836H87.4415C87.2001 10.9393 86.438 10.2172 85.1554 10.2172Z" fill="white"/>
  <path d="M95.1874 9.90767C95.5345 9.18552 95.9494 8.65496 96.4323 8.31599C96.9152 7.97703 97.4811 7.80754 98.13 7.80754C98.4016 7.80754 98.7411 7.84439 99.1486 7.91808V11.0351H99.058C98.6204 10.8583 98.1903 10.7698 97.7678 10.7698C97.0284 10.7698 96.4172 11.0277 95.9344 11.5436C95.4515 12.0446 95.21 12.7447 95.21 13.6437V18.4408H92.1543V8.11704H95.1874V9.90767Z" fill="white"/>
  <path d="M103.593 18.4408H100.537V5H103.593V18.4408Z" fill="white"/>
  <path d="M110.386 15.2133L112.695 8.11704H116L110.658 22H107.308L108.847 18.5956L104.818 8.11704H108.123L110.386 15.2133Z" fill="white"/>
</svg>
